<?xml version="1.0" encoding="utf-8"?>
<!-- Generator: Adobe Adobe Illustrator 28.6.0, SVG Export Plug-In . SVG Version: 6.00 Build 0)  -->
<svg version="1.1" id="Layer_1" xmlns="http://www.w3.org/2000/svg" xmlns:xlink="http://www.w3.org/1999/xlink" x="0px" y="0px"
	 viewBox="0 0 39.06 10" style="enable-background:new 0 0 39.06 10;" xml:space="preserve">
<g>
	<path d="M3.62,5.84h-2v3.45H0.49V0.76h2.82c0.96,0,1.7,0.22,2.22,0.66s0.78,1.07,0.78,1.91c0,0.53-0.14,0.99-0.43,1.39
		S5.19,5.4,4.68,5.6l2,3.62v0.07H5.47L3.62,5.84z M1.62,4.92h1.73c0.56,0,1-0.14,1.33-0.43c0.33-0.29,0.5-0.68,0.5-1.16
		c0-0.53-0.16-0.93-0.47-1.21S3.93,1.68,3.34,1.68H1.62V4.92z"/>
	<path d="M10.59,7.8l2.44-7.04h1.23L11.1,9.29h-1L6.94,0.76h1.22L10.59,7.8z"/>
	<path d="M15.24,1.27c0-0.18,0.05-0.32,0.16-0.45s0.27-0.18,0.48-0.18s0.37,0.06,0.48,0.18s0.16,0.27,0.16,0.45
		s-0.05,0.32-0.16,0.44s-0.27,0.18-0.48,0.18s-0.37-0.06-0.48-0.18S15.24,1.44,15.24,1.27z M16.41,9.29h-1.08V2.95h1.08V9.29z"/>
	<path d="M20.78,9.41c-0.86,0-1.56-0.28-2.1-0.85s-0.81-1.32-0.81-2.26V6.1c0-0.63,0.12-1.19,0.36-1.68s0.58-0.88,1.01-1.16
		s0.9-0.42,1.4-0.42c0.82,0,1.46,0.27,1.92,0.81s0.69,1.32,0.69,2.33v0.45h-4.29c0.02,0.62,0.2,1.13,0.55,1.51
		c0.35,0.38,0.79,0.58,1.33,0.58c0.38,0,0.71-0.08,0.97-0.23s0.5-0.36,0.7-0.62l0.66,0.52C22.64,9,21.84,9.41,20.78,9.41z
		 M20.64,3.72c-0.44,0-0.8,0.16-1.1,0.48s-0.48,0.76-0.55,1.34h3.18V5.46c-0.03-0.55-0.18-0.98-0.45-1.28S21.1,3.72,20.64,3.72z"/>
	<path d="M30.12,7.8l1.22-4.85h1.08l-1.85,6.34H29.7l-1.54-4.8l-1.5,4.8h-0.88l-1.84-6.34h1.08l1.25,4.75l1.48-4.75h0.87L30.12,7.8z
		"/>
	<path d="M37.21,7.61c0-0.29-0.11-0.52-0.33-0.68s-0.61-0.3-1.15-0.42s-0.98-0.26-1.31-0.42s-0.56-0.36-0.71-0.59
		S33.48,5,33.48,4.69c0-0.52,0.22-0.96,0.66-1.32s1-0.54,1.68-0.54c0.72,0,1.3,0.19,1.75,0.56s0.67,0.85,0.67,1.42h-1.09
		c0-0.3-0.13-0.55-0.38-0.77s-0.57-0.32-0.95-0.32c-0.39,0-0.7,0.09-0.93,0.26s-0.33,0.4-0.33,0.67c0,0.26,0.1,0.46,0.31,0.59
		s0.58,0.26,1.12,0.38s0.98,0.27,1.32,0.43s0.58,0.37,0.75,0.61s0.24,0.52,0.24,0.86c0,0.57-0.23,1.02-0.68,1.36
		s-1.04,0.51-1.76,0.51c-0.51,0-0.96-0.09-1.35-0.27s-0.7-0.43-0.92-0.75s-0.33-0.67-0.33-1.05h1.08c0.02,0.36,0.17,0.65,0.44,0.86
		c0.27,0.21,0.63,0.32,1.08,0.32c0.41,0,0.74-0.08,0.99-0.25S37.21,7.88,37.21,7.61z"/>
</g>
</svg>
