<svg xmlns="http://www.w3.org/2000/svg" width="512" height="512" viewBox="0 0 512 512" version="1.1">
	<path d="M 252.589 41.737 C 250.394 46.338, 249.328 55.486, 250.783 57.238 C 251.365 57.940, 252.164 65.984, 252.558 75.114 L 253.275 91.715 248.849 94.760 C 242.523 99.112, 227.136 115.516, 221.785 123.611 C 202.942 152.118, 194.491 186.060, 194.826 231.889 L 194.990 254.278 188.038 261.597 C 167.573 283.142, 160.279 325.070, 172.391 351.540 C 174.570 356.303, 174.616 356.825, 173.219 361.040 C 171.361 366.646, 170.945 388.345, 172.663 390.063 C 174.147 391.547, 187.135 386.485, 194.735 381.461 C 197.614 379.557, 200.190 378, 200.459 378 C 202.105 378, 204.309 385.453, 204.728 392.437 C 205.110 398.808, 204.732 402.283, 202.926 409 C 200.501 418.014, 199.704 434.104, 201.589 435.989 C 203.456 437.856, 216.036 431.998, 220.980 426.959 L 225.461 422.393 230.980 433.508 C 236.178 443.976, 243.744 455.458, 251.382 464.470 L 254.746 468.439 260.123 462.595 C 270.252 451.585, 279.142 437.165, 282.066 427 C 282.778 424.525, 283.498 422.319, 283.665 422.099 C 283.832 421.878, 286.228 423.810, 288.988 426.392 C 293.260 430.388, 305.168 437, 308.093 437 C 309.837 437, 309.085 417.480, 307.007 408.813 C 304.236 397.253, 304.380 388.874, 307.464 382.250 C 308.808 379.363, 310.108 377, 310.354 377 C 310.599 377, 313.174 378.598, 316.077 380.552 C 321.070 383.912, 335.334 391, 337.102 391 C 340.283 391, 340.632 371.537, 337.628 361.692 C 336.234 357.124, 336.279 356.618, 338.532 351.523 C 343.256 340.842, 344.254 334.666, 343.705 319.500 C 342.781 293.940, 335.663 275.494, 320.260 258.739 L 314.949 252.962 315.104 234.731 C 315.271 215.194, 313.839 201.115, 309.479 179.398 C 302.613 145.208, 284.975 113.568, 263.578 97.060 L 258 92.757 258 75.437 C 258 63.808, 258.365 57.892, 259.112 57.431 C 260.626 56.495, 259.396 47.694, 256.990 42.250 C 255.958 39.913, 254.946 38, 254.741 38 C 254.537 38, 253.569 39.681, 252.589 41.737 M 242.751 115.631 C 240.457 116.307, 232.636 128.419, 227.983 138.500 C 223.981 147.172, 219.707 159.551, 217.971 167.500 C 216.642 173.584, 215.010 195.862, 215.751 197.794 C 216.424 199.548, 218.854 199.063, 230.500 194.852 C 239.269 191.682, 239.924 191.597, 256 191.570 C 273.349 191.541, 274.633 191.789, 289.795 198.101 C 292.644 199.287, 293.215 199.271, 294.013 197.986 C 294.521 197.169, 294.740 194.925, 294.500 193 C 292.482 176.804, 291.541 171.221, 289.372 162.586 C 285.293 146.345, 276.647 126.343, 270.124 118.058 C 268.303 115.744, 267.581 115.603, 256.351 115.366 C 249.833 115.228, 243.713 115.348, 242.751 115.631 M 247.400 135.400 L 244 138.800 244 154.823 C 244 170.802, 244.008 170.856, 246.734 174.173 C 250.330 178.549, 250.988 178.967, 254.316 178.985 C 258.205 179.006, 260.465 177.602, 262.911 173.645 C 264.763 170.648, 265 168.713, 265 156.600 C 265 141.541, 264.075 137.777, 259.486 134.168 C 255.401 130.954, 251.442 131.358, 247.400 135.400 M 238.028 205.562 C 223.856 208.634, 212.509 214.597, 204.285 223.293 L 199.333 228.528 198.666 252.926 C 197.483 296.234, 198.284 327.112, 200.703 331.434 C 201.550 332.947, 202.340 332.542, 207.204 328.096 L 212.741 323.036 213.264 300.768 C 213.823 276.943, 215.139 267.002, 219.611 252.829 C 225.547 234.013, 235.028 220.051, 248.355 210.500 C 251.425 208.300, 254.162 205.938, 254.437 205.250 C 255.116 203.554, 246.538 203.717, 238.028 205.562 M 258.993 206.797 C 277.865 221.403, 286.975 237.210, 293.691 267 C 295.884 276.730, 296.377 281.909, 296.891 300.648 C 297.573 325.447, 297.223 324.283, 305.755 330.168 L 310.010 333.103 311.255 330.302 C 312.206 328.161, 312.435 315.826, 312.225 278.013 L 311.951 228.525 307.725 224.168 C 302.216 218.486, 293.182 212.340, 286.123 209.472 C 279.069 206.605, 266.593 203.985, 260.292 204.047 L 255.500 204.094 258.993 206.797 M 249.992 225.888 C 244.724 231.426, 244 235.465, 244.712 255.360 C 245.280 271.257, 245.452 272.384, 247.718 275.076 C 250.770 278.703, 255.692 279.728, 259.818 277.594 C 265.676 274.565, 266 273.315, 266 253.738 C 266 238.122, 265.762 235.454, 264.074 232.145 C 261.777 227.642, 256.699 222, 254.944 222 C 254.254 222, 252.026 223.749, 249.992 225.888 M 320.710 333.328 C 324.676 337.612, 329.321 343.566, 331.034 346.559 C 334.581 352.760, 336.013 353.905, 333.114 348.224 C 330.013 342.145, 322.231 332.347, 317.697 328.812 C 314.417 326.255, 315.076 327.242, 320.710 333.328 M 191.500 331.250 C 185.549 336.139, 182.394 339.909, 179.038 346.140 C 175.044 353.555, 175.125 355.075, 179.138 348 C 183.338 340.593, 188.469 334.397, 193.302 330.896 C 195.501 329.303, 196.885 328, 196.378 328 C 195.871 328, 193.676 329.462, 191.500 331.250 M 298.512 369.250 C 297.457 371.038, 293.396 375.698, 289.489 379.606 C 279.755 389.343, 267.967 395.311, 257.422 395.844 C 248.563 396.291, 239.974 393.740, 231.310 388.086 C 225.775 384.475, 215.351 374.341, 211.685 369.008 L 209.972 366.515 206.029 371.008 C 203.860 373.478, 202.066 376.210, 202.043 377.079 C 201.958 380.222, 208.269 388.010, 214.812 392.834 C 234.599 407.425, 253.319 411.635, 271.406 405.563 C 279.801 402.745, 289.319 397.532, 297.500 391.272 C 302.425 387.503, 309 379.032, 309 376.455 C 309 375.181, 302.051 366.193, 300.966 366.064 C 300.672 366.029, 299.568 367.462, 298.512 369.250" stroke="none" fill="black" fill-rule="evenodd"/>
</svg>
